<?xml version="1.0" encoding="iso-8859-1"?>
<!-- Generator: Adobe Illustrator 19.0.0, SVG Export Plug-In . SVG Version: 6.00 Build 0)  -->
<svg version="1.1" id="Layer_1" xmlns="http://www.w3.org/2000/svg" xmlns:xlink="http://www.w3.org/1999/xlink" x="0px" y="0px"
	 viewBox="0 0 261.556 76.753" style="enable-background:new 0 0 261.556 76.753;" xml:space="preserve">
<path style="fill: #000;" d="M0,42.343c0-2.703,0-5.246,0-7.866c82.459,0,164.879,0,247.625,0c-9.965-9.746-19.726-19.292-29.549-28.898
	c2.043-1.879,4.03-3.708,6.064-5.579c0.338,0.313,0.643,0.588,0.94,0.871c11.972,11.4,23.945,22.798,35.898,34.218
	c0.299,0.286,0.509,0.799,0.529,1.217c0.066,1.369,0.064,2.745,0.001,4.115c-0.019,0.421-0.21,0.944-0.506,1.227
	c-12.022,11.486-24.065,22.95-36.106,34.416c-0.229,0.218-0.469,0.426-0.762,0.691c-2.1-1.84-4.177-3.66-6.36-5.573
	c9.902-9.583,19.76-19.125,29.796-28.838C164.901,42.343,82.489,42.343,0,42.343z"/>
</svg>
